<?xml version="1.0" encoding="UTF-8" standalone="no"?>
<!-- Created with Inkscape (http://www.inkscape.org/) -->

<svg
   width="1000"
   height="1000"
   viewBox="0 0 264.58332 264.58334"
   version="1.1"
   id="svg5"
   xmlns="http://www.w3.org/2000/svg"
   xmlns:svg="http://www.w3.org/2000/svg"
   xmlns:rdf="http://www.w3.org/1999/02/22-rdf-syntax-ns#"
   xmlns:cc="http://creativecommons.org/ns#"
   xmlns:dc="http://purl.org/dc/elements/1.1/">
  <defs
     id="defs2" />
  <g
     id="layer1">
    <rect
       style="fill:#f7f7f7;fill-opacity:1;stroke:none;stroke-width:10.5833;stroke-linecap:square;stroke-miterlimit:4;stroke-dasharray:none;stroke-opacity:1;paint-order:stroke markers fill"
       id="rect5084"
       width="264.58334"
       height="264.58334"
       x="-6.7529299e-06"
       y="-6.7529299e-06" />
    <circle
       style="fill:none;stroke:#4d4d4d;stroke-width:7.9375;stroke-opacity:1;paint-order:stroke markers fill"
       id="path877"
       cx="132.29167"
       cy="132.29167"
       r="62.177082" />
    <path
       d="m 145.46137,117.11322 q 0,-5.3078 -3.81371,-8.6601 -3.72069,-3.35229 -9.1157,-3.35229 -11.16207,0 -13.20846,13.59541 l -8.46457,-1.02431 q 2.41846,-19.275696 21.58002,-19.275696 9.20871,0 15.25484,4.842206 6.04612,4.74909 6.04612,13.31606 0,3.16606 -1.76733,6.33211 -1.67431,3.16606 -3.81371,5.40092 -2.04638,2.14175 -4.74388,4.84221 -2.6975,2.70046 -3.81371,4.3766 -3.06957,4.46973 -3.16259,12.29175 h -8.27854 v -3.81789 q 0,-3.72477 1.39526,-7.07706 1.48828,-3.44542 3.16259,-5.21469 0.27905,-0.37247 4.27879,-3.91101 3.99975,-3.63165 6.23217,-6.70459 2.23241,-3.07293 2.23241,-5.95963 z m -17.76631,49.07388 v -9.31194 h 9.30173 v 9.31194 z"
       id="path11559"
       style="font-size:176.389px;line-height:1.25;font-family:Garuda;-inkscape-font-specification:'Garuda, Normal';letter-spacing:0px;word-spacing:0px;fill:#0473e1;fill-opacity:1;stroke:#0573e1;stroke-width:0.264583;stroke-opacity:1" />
  </g>
  <metadata
     id="metadata856">
    <rdf:RDF>
      <cc:Work
         rdf:about="">
        <dc:creator>
          <cc:Agent>
            <dc:title>Inspire Studio</dc:title>
          </cc:Agent>
        </dc:creator>
        <cc:license
           rdf:resource="http://creativecommons.org/publicdomain/zero/1.0/" />
        <dc:description>Thank you for using this artwork. Feel free to visit our page https://www.pinterest.com.au/inspirestudiobox for more designs. We wish you have a wonderful day, everyday. Amitabha</dc:description>
      </cc:Work>
      <cc:License
         rdf:about="http://creativecommons.org/publicdomain/zero/1.0/">
        <cc:permits
           rdf:resource="http://creativecommons.org/ns#Reproduction" />
        <cc:permits
           rdf:resource="http://creativecommons.org/ns#Distribution" />
        <cc:permits
           rdf:resource="http://creativecommons.org/ns#DerivativeWorks" />
      </cc:License>
    </rdf:RDF>
  </metadata>
</svg>
