<?xml version="1.0" encoding="UTF-8" standalone="no"?>
<!-- Created with Inkscape (http://www.inkscape.org/) -->

<svg
   width="1000"
   height="1000"
   viewBox="0 0 264.58332 264.58334"
   version="1.1"
   id="svg5"
   xmlns="http://www.w3.org/2000/svg"
   xmlns:svg="http://www.w3.org/2000/svg"
   xmlns:rdf="http://www.w3.org/1999/02/22-rdf-syntax-ns#"
   xmlns:cc="http://creativecommons.org/ns#"
   xmlns:dc="http://purl.org/dc/elements/1.1/">
  <defs
     id="defs2" />
  <metadata
     id="metadata856">
    <rdf:RDF>
      <cc:Work
         rdf:about="">
        <dc:creator>
          <cc:Agent>
            <dc:title>Inspire Studio</dc:title>
          </cc:Agent>
        </dc:creator>
        <cc:license
           rdf:resource="http://creativecommons.org/publicdomain/zero/1.0/" />
        <dc:description>Thank you for using this artwork. Feel free to visit our page https://www.pinterest.com.au/inspirestudiobox for more designs. We wish you have a wonderful day, everyday. Amitabha</dc:description>
      </cc:Work>
      <cc:License
         rdf:about="http://creativecommons.org/publicdomain/zero/1.0/">
        <cc:permits
           rdf:resource="http://creativecommons.org/ns#Reproduction" />
        <cc:permits
           rdf:resource="http://creativecommons.org/ns#Distribution" />
        <cc:permits
           rdf:resource="http://creativecommons.org/ns#DerivativeWorks" />
      </cc:License>
    </rdf:RDF>
  </metadata>
  <rect
     style="fill:#f7f7f7;fill-opacity:1;stroke:none;stroke-width:10.5833;stroke-linecap:square;stroke-miterlimit:4;stroke-dasharray:none;stroke-opacity:1;paint-order:stroke markers fill"
     id="rect35197"
     width="264.58334"
     height="264.58334"
     x="-6.7529299e-06"
     y="-6.7529299e-06" />
  <circle
     style="fill:none;stroke:#4d4d4d;stroke-width:7.9375;stroke-linecap:round;stroke-opacity:1;paint-order:stroke markers fill"
     id="circle872"
     cx="147.39304"
     cy="0.34510738"
     r="34.377472"
     transform="matrix(0.70710198,0.70711158,-0.70710198,0.70711158,0,0)" />
  <path
     id="path874"
     style="fill:none;stroke:#4d4d4d;stroke-width:6.61458;stroke-linecap:round;stroke-miterlimit:4;stroke-dasharray:none;paint-order:stroke markers fill"
     d="m 117.80238,135.92009 10.84465,10.8448 a 1.3063446,1.3063446 24.056193 0 0 0.85281,0.3807 l 11.79952,0.64152 a 0.55749265,0.55749265 45.000043 0 1 0.5264,0.5264 l 0.64151,11.79969 a 0.55747819,0.55747819 44.999304 0 0 0.5264,0.52639 l 11.79917,0.64119 a 0.55747816,0.55747816 44.999305 0 1 0.5264,0.52639 l 0.64151,11.7997 a 0.55749219,0.55749219 45.000022 0 0 0.5264,0.5264 l 11.79952,0.64151 a 0.55749219,0.55749219 45.000022 0 1 0.5264,0.5264 l 0.64151,11.7997 a 1.3063689,1.3063689 65.94425 0 0 0.38069,0.85282 l 6.66392,6.664 a 1.0369441,1.0369441 19.25767 0 0 0.85035,0.29709 l 14.70685,-1.67175 a 0.66438591,0.66438591 136.55076 0 0 0.58007,-0.54949 l 2.66146,-15.75797 a 0.96901892,0.96901892 72.293477 0 0 -0.27028,-0.84658 l -59.05422,-59.05501" />
  <path
     style="color:#000000;fill:#000000;fill-opacity:0;stroke-width:4.7625;-inkscape-stroke:none"
     d="m 140.68105,132.51856 53.14298,53.1437"
     id="path876" />
  <path
     id="path878"
     style="color:#000000;fill:#0573e1;stroke-width:0.79374999;stroke-miterlimit:4;stroke-dasharray:none"
     d="m 188.36244,177.06859 -45.07239,-45.07301 -3.13174,3.13178 47.29906,47.2997 z" />
  <circle
     style="fill:#000000;fill-opacity:0;stroke:#0573e1;stroke-width:5.29166661;stroke-linecap:round;stroke-miterlimit:4;stroke-dasharray:none;stroke-opacity:1;paint-order:stroke markers fill"
     id="circle880"
     cx="131.92824"
     cy="0.34510738"
     r="6.6420093"
     transform="matrix(0.70710198,0.70711158,-0.70710198,0.70711158,0,0)" />
</svg>
