<?xml version="1.0" standalone="no"?>
<!DOCTYPE svg PUBLIC "-//W3C//DTD SVG 20010904//EN"
 "http://www.w3.org/TR/2001/REC-SVG-20010904/DTD/svg10.dtd">
<svg version="1.0" xmlns="http://www.w3.org/2000/svg"
 width="700.000000pt" height="700.000000pt" viewBox="0 0 700.000000 700.000000"
 preserveAspectRatio="xMidYMid meet">
<metadata>
Created by potrace 1.14, written by Peter Selinger 2001-2017
</metadata>
<g transform="translate(0.000000,700.000000) scale(0.100000,-0.100000)"
fill="#000000" stroke="none">
<path d="M3454 5356 c-18 -13 -19 -32 -24 -281 l-5 -267 -452 -261 -453 -262
0 -83 c0 -65 3 -83 13 -79 7 3 228 129 490 281 l478 275 484 -279 c266 -154
486 -280 489 -280 3 0 6 37 6 83 l0 83 -452 261 -453 262 -5 266 c-5 249 -6
268 -24 281 -11 8 -32 14 -46 14 -14 0 -35 -6 -46 -14z"/>
<path d="M3645 5301 l-50 -18 -3 -136 -3 -136 71 25 c87 30 92 30 176 -2 55
-21 79 -25 121 -20 88 10 83 2 83 147 0 71 -2 129 -5 129 -2 0 -27 -5 -54 -11
-45 -9 -57 -8 -115 15 -76 31 -147 33 -221 7z"/>
<path d="M3100 4386 l-385 -224 -3 -306 -2 -306 -335 0 -335 0 -280 -350 -280
-350 135 0 135 0 0 -609 0 -609 573 -4 c513 -4 1242 -4 2505 1 l422 1 0 610 0
610 135 0 135 0 -280 350 -280 350 -335 0 -335 0 -2 307 -3 307 -385 223
c-212 122 -392 223 -400 223 -8 -1 -188 -101 -400 -224z m695 -180 l280 -163
3 -1102 2 -1101 -80 0 -80 0 0 348 c0 388 -4 424 -64 522 -41 67 -132 143
-202 169 -218 82 -459 -23 -546 -239 -22 -53 -23 -69 -26 -427 l-3 -373 -80 0
-79 0 2 1101 3 1101 280 163 c154 90 287 164 295 164 8 0 141 -73 295 -163z
m-1085 -1001 l0 -175 -431 0 -431 0 39 48 c21 27 83 105 138 175 l100 126 293
1 292 0 0 -175z m2265 48 c55 -70 117 -148 138 -175 l39 -48 -431 0 -431 0 0
175 0 175 293 0 292 -1 100 -126z m-2265 -928 l0 -525 -392 2 -393 3 -3 523
-2 522 395 0 395 0 0 -525z m2368 3 l-3 -523 -392 -3 -393 -2 0 525 0 525 395
0 395 0 -2 -522z m-1473 381 c25 -12 59 -37 76 -57 63 -72 63 -73 67 -459 l4
-353 -252 0 -252 0 4 353 c3 341 4 353 25 398 45 90 121 138 221 139 43 0 76
-6 107 -21z"/>
<path d="M3390 3961 c-164 -53 -278 -196 -288 -361 -10 -175 75 -317 237 -394
60 -28 75 -31 161 -31 86 0 101 3 161 31 162 77 247 219 237 394 -8 145 -93
270 -226 333 -59 28 -78 32 -162 34 -52 1 -106 -1 -120 -6z m246 -126 c61 -30
124 -100 145 -162 8 -21 13 -67 13 -103 -1 -84 -32 -156 -91 -211 -65 -60
-114 -79 -203 -79 -89 0 -138 19 -203 79 -74 68 -108 175 -87 275 39 190 247
288 426 201z"/>
<path d="M3466 3784 c-13 -12 -16 -39 -16 -124 0 -138 2 -140 142 -140 93 0
98 1 114 25 13 21 15 31 6 50 -10 22 -18 24 -84 27 l-73 3 -5 78 c-5 79 -14
97 -52 97 -9 0 -24 -7 -32 -16z"/>
<path d="M2060 2635 l0 -105 105 0 105 0 0 105 0 105 -105 0 -105 0 0 -105z"/>
<path d="M2390 2635 l0 -105 105 0 106 0 -3 103 -3 102 -102 3 -103 3 0 -106z"/>
<path d="M2060 2325 l0 -105 105 0 105 0 0 105 0 105 -105 0 -105 0 0 -105z"/>
<path d="M2390 2325 l0 -106 103 3 102 3 3 103 3 102 -106 0 -105 0 0 -105z"/>
<path d="M2060 2020 l0 -100 105 0 105 0 0 100 0 100 -105 0 -105 0 0 -100z"/>
<path d="M2390 2020 l0 -100 105 0 105 0 0 100 0 100 -105 0 -105 0 0 -100z"/>
<path d="M4407 2733 c-4 -3 -7 -51 -7 -105 l0 -98 105 0 105 0 0 105 0 105
-98 0 c-54 0 -102 -3 -105 -7z"/>
<path d="M4730 2635 l0 -105 105 0 105 0 0 105 0 105 -105 0 -105 0 0 -105z"/>
<path d="M4402 2328 l3 -103 103 -3 102 -3 0 106 0 105 -105 0 -106 0 3 -102z"/>
<path d="M4730 2325 l0 -105 105 0 105 0 0 105 0 105 -105 0 -105 0 0 -105z"/>
<path d="M4400 2020 l0 -100 105 0 105 0 0 100 0 100 -105 0 -105 0 0 -100z"/>
<path d="M4730 2020 l0 -100 105 0 105 0 0 100 0 100 -105 0 -105 0 0 -100z"/>
</g>
</svg>
